<svg id="visual" viewBox="0 0 900 600" width="900" height="600" xmlns="http://www.w3.org/2000/svg" xmlns:xlink="http://www.w3.org/1999/xlink" version="1.1"><g stroke-width="1" stroke-linejoin="bevel"><path d="M515 279L499 207L404 236Z" fill="#0058cf" stroke="#0058cf"></path><path d="M404 236L493 369L515 279Z" fill="#0058cf" stroke="#0058cf"></path><path d="M404 236L360 333L493 369Z" fill="#001b30" stroke="#001b30"></path><path d="M493 369L607 281L515 279Z" fill="#0050b7" stroke="#0050b7"></path><path d="M515 279L607 281L499 207Z" fill="#004089" stroke="#004089"></path><path d="M321 114L313 228L404 236Z" fill="#0058cf" stroke="#0058cf"></path><path d="M404 236L313 228L360 333Z" fill="#00101c" stroke="#00101c"></path><path d="M630 162L499 89L499 207Z" fill="#0048a0" stroke="#0048a0"></path><path d="M499 207L387 76L404 236Z" fill="#00101c" stroke="#00101c"></path><path d="M360 333L422 419L493 369Z" fill="#0048a0" stroke="#0048a0"></path><path d="M313 228L280 312L360 333Z" fill="#0066ff" stroke="#0066ff"></path><path d="M360 333L303 438L422 419Z" fill="#001b30" stroke="#001b30"></path><path d="M607 281L630 162L499 207Z" fill="#0058cf" stroke="#0058cf"></path><path d="M499 89L387 76L499 207Z" fill="#0058cf" stroke="#0058cf"></path><path d="M387 76L321 114L404 236Z" fill="#00101c" stroke="#00101c"></path><path d="M313 228L209 169L280 312Z" fill="#001b30" stroke="#001b30"></path><path d="M607 281L660 228L630 162Z" fill="#00101c" stroke="#00101c"></path><path d="M490 485L615 413L493 369Z" fill="#00101c" stroke="#00101c"></path><path d="M493 369L615 413L607 281Z" fill="#002545" stroke="#002545"></path><path d="M607 281L689 265L660 228Z" fill="#0048a0" stroke="#0048a0"></path><path d="M730 84L599 75L630 162Z" fill="#0058cf" stroke="#0058cf"></path><path d="M630 162L599 75L499 89Z" fill="#004089" stroke="#004089"></path><path d="M499 89L475 0L387 76Z" fill="#003872" stroke="#003872"></path><path d="M700 404L689 265L607 281Z" fill="#001b30" stroke="#001b30"></path><path d="M660 228L730 84L630 162Z" fill="#0050b7" stroke="#0050b7"></path><path d="M386 526L490 485L422 419Z" fill="#002545" stroke="#002545"></path><path d="M422 419L490 485L493 369Z" fill="#002e5c" stroke="#002e5c"></path><path d="M280 312L303 438L360 333Z" fill="#0050b7" stroke="#0050b7"></path><path d="M564 0L475 0L499 89Z" fill="#0048a0" stroke="#0048a0"></path><path d="M387 76L282 0L321 114Z" fill="#00101c" stroke="#00101c"></path><path d="M475 0L395 0L387 76Z" fill="#005fe7" stroke="#005fe7"></path><path d="M200 79L209 169L321 114Z" fill="#0050b7" stroke="#0050b7"></path><path d="M321 114L209 169L313 228Z" fill="#002545" stroke="#002545"></path><path d="M163 386L214 463L303 438Z" fill="#001b30" stroke="#001b30"></path><path d="M490 485L574 497L615 413Z" fill="#00101c" stroke="#00101c"></path><path d="M615 413L700 404L607 281Z" fill="#0066ff" stroke="#0066ff"></path><path d="M599 75L564 0L499 89Z" fill="#00101c" stroke="#00101c"></path><path d="M692 0L564 0L599 75Z" fill="#0066ff" stroke="#0066ff"></path><path d="M720 463L700 404L615 413Z" fill="#003872" stroke="#003872"></path><path d="M303 438L386 526L422 419Z" fill="#003872" stroke="#003872"></path><path d="M490 485L473 600L574 497Z" fill="#0066ff" stroke="#0066ff"></path><path d="M209 169L173 333L280 312Z" fill="#003872" stroke="#003872"></path><path d="M303 438L297 520L386 526Z" fill="#001b30" stroke="#001b30"></path><path d="M395 0L282 0L387 76Z" fill="#00101c" stroke="#00101c"></path><path d="M214 463L297 520L303 438Z" fill="#0048a0" stroke="#0048a0"></path><path d="M282 0L200 79L321 114Z" fill="#002e5c" stroke="#002e5c"></path><path d="M209 169L126 181L173 333Z" fill="#0058cf" stroke="#0058cf"></path><path d="M799 132L660 228L689 265Z" fill="#004089" stroke="#004089"></path><path d="M799 132L730 84L660 228Z" fill="#002545" stroke="#002545"></path><path d="M163 386L303 438L280 312Z" fill="#003872" stroke="#003872"></path><path d="M104 321L163 386L173 333Z" fill="#001b30" stroke="#001b30"></path><path d="M173 333L163 386L280 312Z" fill="#004089" stroke="#004089"></path><path d="M574 497L720 463L615 413Z" fill="#0048a0" stroke="#0048a0"></path><path d="M785 405L813 261L689 265Z" fill="#0058cf" stroke="#0058cf"></path><path d="M730 84L692 0L599 75Z" fill="#00101c" stroke="#00101c"></path><path d="M138 99L126 181L209 169Z" fill="#0058cf" stroke="#0058cf"></path><path d="M386 526L473 600L490 485Z" fill="#003872" stroke="#003872"></path><path d="M574 497L685 600L720 463Z" fill="#0048a0" stroke="#0048a0"></path><path d="M374 600L473 600L386 526Z" fill="#001b30" stroke="#001b30"></path><path d="M785 405L689 265L700 404Z" fill="#002545" stroke="#002545"></path><path d="M730 84L796 0L692 0Z" fill="#002545" stroke="#002545"></path><path d="M265 600L374 600L297 520Z" fill="#0050b7" stroke="#0050b7"></path><path d="M297 520L374 600L386 526Z" fill="#0048a0" stroke="#0048a0"></path><path d="M720 463L785 405L700 404Z" fill="#00101c" stroke="#00101c"></path><path d="M203 0L138 99L200 79Z" fill="#0050b7" stroke="#0050b7"></path><path d="M200 79L138 99L209 169Z" fill="#0050b7" stroke="#0050b7"></path><path d="M813 261L799 132L689 265Z" fill="#002e5c" stroke="#002e5c"></path><path d="M282 0L203 0L200 79Z" fill="#004089" stroke="#004089"></path><path d="M126 181L104 321L173 333Z" fill="#001b30" stroke="#001b30"></path><path d="M163 386L108 419L214 463Z" fill="#004089" stroke="#004089"></path><path d="M0 303L104 321L0 195Z" fill="#004089" stroke="#004089"></path><path d="M900 170L834 165L813 261Z" fill="#00101c" stroke="#00101c"></path><path d="M813 261L834 165L799 132Z" fill="#0058cf" stroke="#0058cf"></path><path d="M799 132L796 0L730 84Z" fill="#002545" stroke="#002545"></path><path d="M473 600L627 600L574 497Z" fill="#002545" stroke="#002545"></path><path d="M720 463L808 485L785 405Z" fill="#002e5c" stroke="#002e5c"></path><path d="M104 321L108 419L163 386Z" fill="#002e5c" stroke="#002e5c"></path><path d="M221 600L265 600L297 520Z" fill="#001b30" stroke="#001b30"></path><path d="M221 600L297 520L214 463Z" fill="#005fe7" stroke="#005fe7"></path><path d="M627 600L685 600L574 497Z" fill="#002545" stroke="#002545"></path><path d="M685 600L808 485L720 463Z" fill="#002e5c" stroke="#002e5c"></path><path d="M785 405L900 309L813 261Z" fill="#001b30" stroke="#001b30"></path><path d="M900 83L796 0L799 132Z" fill="#0066ff" stroke="#0066ff"></path><path d="M137 600L221 600L214 463Z" fill="#0050b7" stroke="#0050b7"></path><path d="M900 400L900 309L785 405Z" fill="#005fe7" stroke="#005fe7"></path><path d="M834 165L900 83L799 132Z" fill="#001b30" stroke="#001b30"></path><path d="M900 309L900 170L813 261Z" fill="#005fe7" stroke="#005fe7"></path><path d="M203 0L79 0L138 99Z" fill="#0066ff" stroke="#0066ff"></path><path d="M138 99L0 195L126 181Z" fill="#001b30" stroke="#001b30"></path><path d="M0 473L89 530L108 419Z" fill="#004089" stroke="#004089"></path><path d="M900 486L900 400L808 485Z" fill="#002e5c" stroke="#002e5c"></path><path d="M808 485L900 400L785 405Z" fill="#0066ff" stroke="#0066ff"></path><path d="M0 388L108 419L104 321Z" fill="#0048a0" stroke="#0048a0"></path><path d="M108 419L89 530L214 463Z" fill="#004089" stroke="#004089"></path><path d="M0 195L104 321L126 181Z" fill="#0058cf" stroke="#0058cf"></path><path d="M0 60L0 195L138 99Z" fill="#00101c" stroke="#00101c"></path><path d="M900 170L900 83L834 165Z" fill="#002545" stroke="#002545"></path><path d="M89 530L137 600L214 463Z" fill="#0066ff" stroke="#0066ff"></path><path d="M0 303L0 388L104 321Z" fill="#0050b7" stroke="#0050b7"></path><path d="M834 600L900 486L808 485Z" fill="#0066ff" stroke="#0066ff"></path><path d="M79 0L0 60L138 99Z" fill="#002545" stroke="#002545"></path><path d="M900 83L900 0L796 0Z" fill="#0058cf" stroke="#0058cf"></path><path d="M685 600L834 600L808 485Z" fill="#002545" stroke="#002545"></path><path d="M0 388L0 473L108 419Z" fill="#003872" stroke="#003872"></path><path d="M89 530L0 600L137 600Z" fill="#004089" stroke="#004089"></path><path d="M79 0L0 0L0 60Z" fill="#005fe7" stroke="#005fe7"></path><path d="M834 600L900 600L900 486Z" fill="#0048a0" stroke="#0048a0"></path><path d="M0 473L0 600L89 530Z" fill="#003872" stroke="#003872"></path></g></svg>